<svg width="141" height="34" viewBox="0 0 141 34" fill="none" xmlns="http://www.w3.org/2000/svg">
<path d="M0.949941 26.0359L2.58226 28.9711L4.22939 26.0359H4.75499L2.81175 29.3931V31.4251H2.35648V29.3931L0.409535 26.0359H0.949941Z" fill="white"/>
<path d="M4.95117 29.4856V29.3634C4.95117 29.0723 4.99312 28.8033 5.07702 28.5565C5.16092 28.3098 5.2806 28.0963 5.43605 27.9162C5.59398 27.7361 5.78275 27.5966 6.00237 27.4979C6.22199 27.3968 6.46628 27.3462 6.73525 27.3462C7.00669 27.3462 7.25222 27.3968 7.47183 27.4979C7.69145 27.5966 7.88022 27.7361 8.03815 27.9162C8.19608 28.0963 8.31699 28.3098 8.40089 28.5565C8.48479 28.8033 8.52674 29.0723 8.52674 29.3634V29.4856C8.52674 29.7768 8.48479 30.0457 8.40089 30.2925C8.31699 30.5368 8.19608 30.749 8.03815 30.9291C7.88269 31.1093 7.69515 31.2499 7.47553 31.3511C7.25592 31.4498 7.01162 31.4992 6.74265 31.4992C6.47122 31.4992 6.22569 31.4498 6.00607 31.3511C5.78646 31.2499 5.59768 31.1093 5.43976 30.9291C5.28183 30.749 5.16092 30.5368 5.07702 30.2925C4.99312 30.0457 4.95117 29.7768 4.95117 29.4856ZM5.39164 29.3634V29.4856C5.39164 29.7052 5.42125 29.9137 5.48047 30.1111C5.53969 30.3061 5.62606 30.48 5.73957 30.633C5.85308 30.7836 5.99373 30.902 6.16153 30.9884C6.32933 31.0747 6.52304 31.1179 6.74265 31.1179C6.9598 31.1179 7.15104 31.0747 7.31637 30.9884C7.48417 30.902 7.62482 30.7836 7.73833 30.633C7.85184 30.48 7.93698 30.3061 7.99373 30.1111C8.05295 29.9137 8.08257 29.7052 8.08257 29.4856V29.3634C8.08257 29.1463 8.05295 28.9403 7.99373 28.7453C7.93698 28.5504 7.85061 28.3764 7.73463 28.2234C7.62112 28.0704 7.48047 27.9495 7.31267 27.8607C7.14487 27.7718 6.9524 27.7274 6.73525 27.7274C6.5181 27.7274 6.32563 27.7718 6.15783 27.8607C5.9925 27.9495 5.85185 28.0704 5.73587 28.2234C5.62236 28.3764 5.53599 28.5504 5.47677 28.7453C5.42002 28.9403 5.39164 29.1463 5.39164 29.3634Z" fill="white"/>
<path d="M12.0098 30.4998V27.4202H12.4539V31.4251H12.0283L12.0098 30.4998ZM12.0912 29.7595L12.3207 29.7521C12.3207 30.0038 12.2911 30.2357 12.2318 30.448C12.1726 30.6602 12.0801 30.8452 11.9542 31.0032C11.8284 31.1611 11.6655 31.2832 11.4657 31.3696C11.2658 31.456 11.0252 31.4992 10.7439 31.4992C10.5489 31.4992 10.37 31.472 10.2072 31.4177C10.0468 31.361 9.9086 31.2721 9.79262 31.1512C9.67664 31.0303 9.58657 30.8736 9.52242 30.6812C9.46072 30.4887 9.42988 30.2555 9.42988 29.9816V27.4202H9.87035V29.989C9.87035 30.2037 9.89379 30.3826 9.94067 30.5257C9.99003 30.6688 10.0567 30.7836 10.1406 30.8699C10.2269 30.9563 10.3256 31.018 10.4367 31.055C10.5477 31.092 10.6674 31.1105 10.7957 31.1105C11.1214 31.1105 11.3781 31.0476 11.5656 30.9217C11.7556 30.7959 11.8901 30.6306 11.969 30.4258C12.0505 30.2185 12.0912 29.9964 12.0912 29.7595Z" fill="white"/>
<path d="M14.0529 28.0828V31.4251H13.6125V27.4202H14.0418L14.0529 28.0828ZM15.4706 27.3906L15.4595 27.7977C15.4101 27.7903 15.362 27.7842 15.3151 27.7792C15.2682 27.7743 15.2177 27.7718 15.1634 27.7718C14.9709 27.7718 14.8019 27.8076 14.6563 27.8792C14.5132 27.9483 14.3922 28.0457 14.2935 28.1716C14.1948 28.295 14.1196 28.4406 14.0678 28.6084C14.0159 28.7737 13.9863 28.9514 13.9789 29.1414L13.8161 29.2043C13.8161 28.9427 13.8432 28.6997 13.8975 28.4751C13.9518 28.2506 14.0344 28.0544 14.1455 27.8866C14.259 27.7163 14.4009 27.5843 14.5711 27.4905C14.7439 27.3943 14.9462 27.3462 15.1782 27.3462C15.2349 27.3462 15.2905 27.3511 15.3447 27.361C15.4015 27.3684 15.4434 27.3783 15.4706 27.3906Z" fill="white"/>
<path d="M21.3743 26.0359H21.8296V29.6855C21.8296 30.0902 21.7445 30.427 21.5742 30.696C21.404 30.9649 21.1745 31.166 20.8858 31.2993C20.5995 31.4325 20.2824 31.4992 19.9345 31.4992C19.5767 31.4992 19.2547 31.4325 18.9684 31.2993C18.6822 31.166 18.4552 30.9649 18.2874 30.696C18.122 30.427 18.0394 30.0902 18.0394 29.6855V26.0359H18.4909V29.6855C18.4909 29.9989 18.5526 30.2617 18.676 30.4739C18.7994 30.6861 18.9697 30.8452 19.1868 30.9514C19.404 31.0575 19.6532 31.1105 19.9345 31.1105C20.2133 31.1105 20.4613 31.0575 20.6785 30.9514C20.8956 30.8452 21.0659 30.6861 21.1893 30.4739C21.3127 30.2617 21.3743 29.9989 21.3743 29.6855V26.0359Z" fill="white"/>
<path d="M23.499 25.7398V31.4251H23.0585V25.7398H23.499Z" fill="white"/>
<path d="M26.2232 27.4202V27.7829H24.217V27.4202H26.2232ZM24.9536 26.3912H25.3941V30.4517C25.3941 30.6367 25.4188 30.7762 25.4681 30.8699C25.5175 30.9637 25.5816 31.0266 25.6606 31.0587C25.7395 31.0908 25.8247 31.1068 25.916 31.1068C25.9826 31.1068 26.0468 31.1031 26.1084 31.0957C26.1701 31.0858 26.2257 31.076 26.275 31.0661L26.2935 31.4399C26.2392 31.4572 26.1689 31.4708 26.0825 31.4807C25.9962 31.493 25.9098 31.4992 25.8234 31.4992C25.6532 31.4992 25.5027 31.4683 25.3719 31.4066C25.2411 31.3425 25.1387 31.2339 25.0647 31.0809C24.9906 30.9254 24.9536 30.7145 24.9536 30.448V26.3912Z" fill="white"/>
<path d="M27.6445 27.4202V31.4251H27.2041V27.4202H27.6445ZM27.1263 26.2617C27.1263 26.1778 27.1522 26.1074 27.2041 26.0507C27.2584 25.9915 27.3324 25.9618 27.4262 25.9618C27.5199 25.9618 27.5939 25.9915 27.6482 26.0507C27.705 26.1074 27.7334 26.1778 27.7334 26.2617C27.7334 26.3431 27.705 26.4134 27.6482 26.4726C27.5939 26.5294 27.5199 26.5578 27.4262 26.5578C27.3324 26.5578 27.2584 26.5294 27.2041 26.4726C27.1522 26.4134 27.1263 26.3431 27.1263 26.2617Z" fill="white"/>
<path d="M29.2732 28.2493V31.4251H28.829V27.4202H29.2547L29.2732 28.2493ZM29.1917 29.1747L28.977 29.0636C28.9919 28.8267 29.0363 28.6047 29.1103 28.3974C29.1868 28.1901 29.2929 28.0075 29.4286 27.8496C29.5643 27.6916 29.7272 27.5683 29.9172 27.4794C30.1072 27.3906 30.3231 27.3462 30.565 27.3462C30.7599 27.3462 30.9363 27.3733 31.0943 27.4276C31.2546 27.4794 31.3904 27.5621 31.5014 27.6756C31.6149 27.7866 31.7025 27.9322 31.7642 28.1124C31.8259 28.2925 31.8567 28.5084 31.8567 28.7601V31.4251H31.4163V28.7749C31.4163 28.5084 31.3743 28.2999 31.2904 28.1494C31.209 27.9989 31.0943 27.8915 30.9462 27.8274C30.8006 27.7632 30.6316 27.7311 30.4391 27.7311C30.2121 27.7311 30.0196 27.778 29.8617 27.8718C29.7062 27.9631 29.5791 28.0828 29.4804 28.2308C29.3842 28.3764 29.3126 28.5331 29.2658 28.7009C29.2189 28.8662 29.1942 29.0241 29.1917 29.1747ZM31.853 28.8267L31.5569 28.8341C31.5693 28.6392 31.6137 28.4529 31.6902 28.2752C31.7691 28.0976 31.8765 27.9396 32.0122 27.8014C32.1479 27.6608 32.3096 27.5498 32.4971 27.4683C32.6871 27.3869 32.9005 27.3462 33.1374 27.3462C33.3447 27.3462 33.5298 27.3746 33.6926 27.4313C33.8555 27.4856 33.9925 27.5732 34.1035 27.6941C34.217 27.8126 34.3034 27.9643 34.3626 28.1494C34.4218 28.3345 34.4514 28.5565 34.4514 28.8156V31.4251H34.0073V28.8119C34.0073 28.5282 33.9653 28.3085 33.8814 28.1531C33.8 27.9952 33.6865 27.8853 33.5409 27.8237C33.3953 27.762 33.225 27.7311 33.0301 27.7311C32.8376 27.7336 32.6686 27.7694 32.523 27.8385C32.3774 27.9051 32.2553 27.9939 32.1566 28.105C32.0603 28.2135 31.9863 28.3308 31.9345 28.4566C31.8851 28.5825 31.858 28.7058 31.853 28.8267Z" fill="white"/>
<path d="M38.0122 30.7071V28.6417C38.0122 28.4517 37.9727 28.2876 37.8938 28.1494C37.8148 28.0112 37.6988 27.9051 37.5458 27.8311C37.3928 27.757 37.2041 27.72 36.9795 27.72C36.7722 27.72 36.5872 27.757 36.4243 27.8311C36.2639 27.9026 36.1368 28.0001 36.043 28.1235C35.9517 28.2444 35.9061 28.3789 35.9061 28.5269L35.4619 28.5232C35.4619 28.3727 35.4989 28.2271 35.573 28.0865C35.647 27.9458 35.7519 27.82 35.8876 27.7089C36.0233 27.5979 36.1849 27.5103 36.3725 27.4461C36.5625 27.3795 36.771 27.3462 36.998 27.3462C37.2843 27.3462 37.5359 27.3943 37.7531 27.4905C37.9727 27.5868 38.1442 27.7311 38.2676 27.9236C38.391 28.1161 38.4527 28.3579 38.4527 28.6491V30.5849C38.4527 30.7231 38.4625 30.8662 38.4823 31.0143C38.5045 31.1623 38.5353 31.2845 38.5748 31.3807V31.4251H38.1047C38.0751 31.3363 38.0517 31.2253 38.0344 31.092C38.0196 30.9563 38.0122 30.828 38.0122 30.7071ZM38.1158 29.0932L38.1232 29.4338H37.2534C37.0264 29.4338 36.8228 29.4547 36.6427 29.4967C36.465 29.5362 36.3145 29.5954 36.1911 29.6744C36.0677 29.7509 35.9727 29.8434 35.9061 29.952C35.8419 30.0605 35.8099 30.1839 35.8099 30.3221C35.8099 30.4652 35.8456 30.596 35.9172 30.7145C35.9912 30.8329 36.0949 30.9279 36.2281 30.9995C36.3638 31.0686 36.5242 31.1031 36.7093 31.1031C36.9561 31.1031 37.1732 31.0575 37.3607 30.9662C37.5508 30.8749 37.7074 30.7552 37.8308 30.6071C37.9542 30.4591 38.0369 30.2974 38.0788 30.1222L38.2713 30.3776C38.2392 30.501 38.18 30.6281 38.0936 30.7589C38.0097 30.8872 37.8999 31.0081 37.7642 31.1216C37.6285 31.2327 37.4681 31.324 37.283 31.3955C37.1004 31.4646 36.8931 31.4992 36.6612 31.4992C36.3996 31.4992 36.1714 31.4498 35.9764 31.3511C35.7839 31.2524 35.6334 31.1179 35.5248 30.9477C35.4187 30.7749 35.3657 30.58 35.3657 30.3628C35.3657 30.1654 35.4076 29.989 35.4915 29.8335C35.5754 29.6756 35.6963 29.5423 35.8543 29.4338C36.0147 29.3227 36.2071 29.2388 36.4317 29.1821C36.6587 29.1229 36.9129 29.0932 37.1942 29.0932H38.1158Z" fill="white"/>
<path d="M41.1547 27.4202V27.7829H39.1485V27.4202H41.1547ZM39.8851 26.3912H40.3256V30.4517C40.3256 30.6367 40.3503 30.7762 40.3996 30.8699C40.449 30.9637 40.5131 31.0266 40.5921 31.0587C40.671 31.0908 40.7562 31.1068 40.8475 31.1068C40.9141 31.1068 40.9783 31.1031 41.04 31.0957C41.1016 31.0858 41.1572 31.076 41.2065 31.0661L41.225 31.4399C41.1707 31.4572 41.1004 31.4708 41.014 31.4807C40.9277 31.493 40.8413 31.4992 40.7549 31.4992C40.5847 31.4992 40.4342 31.4683 40.3034 31.4066C40.1726 31.3425 40.0702 31.2339 39.9962 31.0809C39.9221 30.9254 39.8851 30.7145 39.8851 30.448V26.3912Z" fill="white"/>
<path d="M43.6309 31.4992C43.3694 31.4992 43.1288 31.451 42.9092 31.3548C42.692 31.2586 42.502 31.1229 42.3391 30.9477C42.1788 30.7725 42.0541 30.5652 41.9653 30.3258C41.8789 30.084 41.8358 29.82 41.8358 29.5337V29.3745C41.8358 29.0661 41.8814 28.7873 41.9727 28.538C42.064 28.2888 42.1899 28.0754 42.3503 27.8977C42.5106 27.72 42.6933 27.5843 42.8981 27.4905C43.1053 27.3943 43.3225 27.3462 43.5495 27.3462C43.8037 27.3462 44.0295 27.3918 44.2269 27.4831C44.4243 27.572 44.5896 27.699 44.7229 27.8644C44.8586 28.0272 44.961 28.2209 45.0301 28.4455C45.0992 28.6676 45.1337 28.9131 45.1337 29.1821V29.4523H42.1023V29.0747H44.6932V29.0229C44.6883 28.7984 44.6427 28.5886 44.5563 28.3937C44.4724 28.1963 44.3466 28.0359 44.1788 27.9125C44.011 27.7891 43.8012 27.7274 43.5495 27.7274C43.362 27.7274 43.1892 27.7669 43.0313 27.8459C42.8759 27.9248 42.7414 28.0383 42.6279 28.1864C42.5168 28.332 42.4304 28.506 42.3688 28.7083C42.3095 28.9082 42.2799 29.1303 42.2799 29.3745V29.5337C42.2799 29.7558 42.312 29.9631 42.3762 30.1555C42.4428 30.3456 42.5366 30.5134 42.6575 30.6589C42.7809 30.8045 42.9264 30.918 43.0942 30.9995C43.262 31.0809 43.4471 31.1216 43.6495 31.1216C43.8863 31.1216 44.0961 31.0784 44.2787 30.9921C44.4613 30.9032 44.6254 30.7638 44.771 30.5738L45.0486 30.7885C44.9622 30.9168 44.8536 31.0353 44.7229 31.1438C44.5945 31.2524 44.4403 31.3388 44.2602 31.4029C44.08 31.4671 43.8703 31.4992 43.6309 31.4992Z" fill="white"/>
<path d="M51.3114 31.0365V31.4251H48.2799V31.0365H51.3114ZM48.4169 26.0359V31.4251H47.9616V26.0359H48.4169ZM50.9338 28.4529V28.8415H48.2799V28.4529H50.9338ZM51.2929 26.0359V26.4282H48.2799V26.0359H51.2929Z" fill="white"/>
<path d="M53.2583 30.9995L54.5427 27.4202H54.998L53.4989 31.4251H53.1769L53.2583 30.9995ZM52.0961 27.4202L53.3953 31.0106L53.4656 31.4251H53.1399L51.6371 27.4202H52.0961Z" fill="white"/>
<path d="M57.2225 31.4992C56.961 31.4992 56.7204 31.451 56.5008 31.3548C56.2836 31.2586 56.0936 31.1229 55.9307 30.9477C55.7703 30.7725 55.6457 30.5652 55.5569 30.3258C55.4705 30.084 55.4273 29.82 55.4273 29.5337V29.3745C55.4273 29.0661 55.473 28.7873 55.5643 28.538C55.6556 28.2888 55.7815 28.0754 55.9418 27.8977C56.1022 27.72 56.2848 27.5843 56.4897 27.4905C56.6969 27.3943 56.9141 27.3462 57.1411 27.3462C57.3953 27.3462 57.621 27.3918 57.8185 27.4831C58.0159 27.572 58.1812 27.699 58.3145 27.8644C58.4502 28.0272 58.5526 28.2209 58.6217 28.4455C58.6908 28.6676 58.7253 28.9131 58.7253 29.1821V29.4523H55.6938V29.0747H58.2848V29.0229C58.2799 28.7984 58.2343 28.5886 58.1479 28.3937C58.064 28.1963 57.9381 28.0359 57.7703 27.9125C57.6025 27.7891 57.3928 27.7274 57.1411 27.7274C56.9536 27.7274 56.7808 27.7669 56.6229 27.8459C56.4674 27.9248 56.333 28.0383 56.2195 28.1864C56.1084 28.332 56.022 28.506 55.9604 28.7083C55.9011 28.9082 55.8715 29.1303 55.8715 29.3745V29.5337C55.8715 29.7558 55.9036 29.9631 55.9678 30.1555C56.0344 30.3456 56.1281 30.5134 56.2491 30.6589C56.3724 30.8045 56.518 30.918 56.6858 30.9995C56.8536 31.0809 57.0387 31.1216 57.241 31.1216C57.4779 31.1216 57.6877 31.0784 57.8703 30.9921C58.0529 30.9032 58.217 30.7638 58.3626 30.5738L58.6402 30.7885C58.5538 30.9168 58.4452 31.0353 58.3145 31.1438C58.1861 31.2524 58.0319 31.3388 57.8518 31.4029C57.6716 31.4671 57.4619 31.4992 57.2225 31.4992Z" fill="white"/>
<path d="M60.0393 28.2752V31.4251H59.5988V27.4202H60.0208L60.0393 28.2752ZM59.9394 29.1747L59.7432 29.0636C59.758 28.8267 59.8061 28.6047 59.8876 28.3974C59.969 28.1901 60.0788 28.0075 60.217 27.8496C60.3576 27.6916 60.5217 27.5683 60.7093 27.4794C60.8993 27.3906 61.109 27.3462 61.3385 27.3462C61.5384 27.3462 61.7173 27.3733 61.8752 27.4276C62.0331 27.4819 62.1676 27.5683 62.2787 27.6867C62.3897 27.8052 62.4736 27.9569 62.5304 28.142C62.5896 28.3271 62.6192 28.5528 62.6192 28.8193V31.4251H62.175V28.8156C62.175 28.5393 62.1368 28.3233 62.0603 28.1679C61.9838 28.01 61.8752 27.8977 61.7346 27.8311C61.5939 27.7644 61.4273 27.7311 61.2349 27.7311C61.0227 27.7311 60.8363 27.778 60.676 27.8718C60.518 27.9631 60.3848 28.0828 60.2762 28.2308C60.1701 28.3764 60.0887 28.5331 60.0319 28.7009C59.9752 28.8662 59.9443 29.0241 59.9394 29.1747Z" fill="white"/>
<path d="M65.2805 27.4202V27.7829H63.2743V27.4202H65.2805ZM64.0109 26.3912H64.4514V30.4517C64.4514 30.6367 64.4761 30.7762 64.5254 30.8699C64.5748 30.9637 64.6389 31.0266 64.7179 31.0587C64.7969 31.0908 64.882 31.1068 64.9733 31.1068C65.0399 31.1068 65.1041 31.1031 65.1658 31.0957C65.2275 31.0858 65.283 31.076 65.3323 31.0661L65.3508 31.4399C65.2966 31.4572 65.2262 31.4708 65.1399 31.4807C65.0535 31.493 64.9671 31.4992 64.8808 31.4992C64.7105 31.4992 64.56 31.4683 64.4292 31.4066C64.2984 31.3425 64.196 31.2339 64.122 31.0809C64.0479 30.9254 64.0109 30.7145 64.0109 30.448V26.3912Z" fill="white"/>
<path d="M68.3046 26.0359H68.7635L70.7549 30.7811L72.75 26.0359H73.2052L70.9289 31.4251H70.5809L68.3046 26.0359ZM68.1639 26.0359H68.5674L68.6155 29.071V31.4251H68.1639V26.0359ZM72.9498 26.0359H73.3533V31.4251H72.898V29.071L72.9498 26.0359Z" fill="white"/>
<path d="M77.0547 30.7071V28.6417C77.0547 28.4517 77.0152 28.2876 76.9363 28.1494C76.8573 28.0112 76.7413 27.9051 76.5883 27.8311C76.4353 27.757 76.2466 27.72 76.022 27.72C75.8147 27.72 75.6297 27.757 75.4668 27.8311C75.3064 27.9026 75.1793 28.0001 75.0856 28.1235C74.9943 28.2444 74.9486 28.3789 74.9486 28.5269L74.5044 28.5232C74.5044 28.3727 74.5415 28.2271 74.6155 28.0865C74.6895 27.9458 74.7944 27.82 74.9301 27.7089C75.0658 27.5979 75.2274 27.5103 75.415 27.4461C75.605 27.3795 75.8135 27.3462 76.0405 27.3462C76.3268 27.3462 76.5785 27.3943 76.7956 27.4905C77.0152 27.5868 77.1867 27.7311 77.3101 27.9236C77.4335 28.1161 77.4952 28.3579 77.4952 28.6491V30.5849C77.4952 30.7231 77.505 30.8662 77.5248 31.0143C77.547 31.1623 77.5778 31.2845 77.6173 31.3807V31.4251H77.1472C77.1176 31.3363 77.0942 31.2253 77.0769 31.092C77.0621 30.9563 77.0547 30.828 77.0547 30.7071ZM77.1583 29.0932L77.1657 29.4338H76.2959C76.0689 29.4338 75.8653 29.4547 75.6852 29.4967C75.5075 29.5362 75.357 29.5954 75.2336 29.6744C75.1102 29.7509 75.0152 29.8434 74.9486 29.952C74.8844 30.0605 74.8524 30.1839 74.8524 30.3221C74.8524 30.4652 74.8881 30.596 74.9597 30.7145C75.0337 30.8329 75.1374 30.9279 75.2706 30.9995C75.4063 31.0686 75.5667 31.1031 75.7518 31.1031C75.9986 31.1031 76.2157 31.0575 76.4033 30.9662C76.5933 30.8749 76.75 30.7552 76.8733 30.6071C76.9967 30.4591 77.0794 30.2974 77.1213 30.1222L77.3138 30.3776C77.2817 30.501 77.2225 30.6281 77.1361 30.7589C77.0522 30.8872 76.9424 31.0081 76.8067 31.1216C76.671 31.2327 76.5106 31.324 76.3255 31.3955C76.1429 31.4646 75.9356 31.4992 75.7037 31.4992C75.4421 31.4992 75.2139 31.4498 75.0189 31.3511C74.8265 31.2524 74.6759 31.1179 74.5674 30.9477C74.4613 30.7749 74.4082 30.58 74.4082 30.3628C74.4082 30.1654 74.4502 29.989 74.534 29.8335C74.6179 29.6756 74.7389 29.5423 74.8968 29.4338C75.0572 29.3227 75.2497 29.2388 75.4742 29.1821C75.7012 29.1229 75.9554 29.0932 76.2367 29.0932H77.1583Z" fill="white"/>
<path d="M79.1238 28.2752V31.4251H78.6833V27.4202H79.1053L79.1238 28.2752ZM79.0239 29.1747L78.8277 29.0636C78.8425 28.8267 78.8906 28.6047 78.972 28.3974C79.0535 28.1901 79.1633 28.0075 79.3015 27.8496C79.4421 27.6916 79.6062 27.5683 79.7938 27.4794C79.9838 27.3906 80.1935 27.3462 80.423 27.3462C80.6229 27.3462 80.8018 27.3733 80.9597 27.4276C81.1176 27.4819 81.2521 27.5683 81.3632 27.6867C81.4742 27.8052 81.5581 27.9569 81.6148 28.142C81.6741 28.3271 81.7037 28.5528 81.7037 28.8193V31.4251H81.2595V28.8156C81.2595 28.5393 81.2213 28.3233 81.1448 28.1679C81.0683 28.01 80.9597 27.8977 80.819 27.8311C80.6784 27.7644 80.5118 27.7311 80.3194 27.7311C80.1071 27.7311 79.9208 27.778 79.7604 27.8718C79.6025 27.9631 79.4693 28.0828 79.3607 28.2308C79.2546 28.3764 79.1731 28.5331 79.1164 28.7009C79.0596 28.8662 79.0288 29.0241 79.0239 29.1747Z" fill="white"/>
<path d="M85.2867 30.7071V28.6417C85.2867 28.4517 85.2472 28.2876 85.1682 28.1494C85.0892 28.0112 84.9733 27.9051 84.8203 27.8311C84.6673 27.757 84.4785 27.72 84.254 27.72C84.0467 27.72 83.8616 27.757 83.6987 27.8311C83.5384 27.9026 83.4113 28.0001 83.3175 28.1235C83.2262 28.2444 83.1805 28.3789 83.1805 28.5269L82.7364 28.5232C82.7364 28.3727 82.7734 28.2271 82.8474 28.0865C82.9214 27.9458 83.0263 27.82 83.162 27.7089C83.2978 27.5979 83.4594 27.5103 83.6469 27.4461C83.8369 27.3795 84.0454 27.3462 84.2725 27.3462C84.5587 27.3462 84.8104 27.3943 85.0275 27.4905C85.2472 27.5868 85.4187 27.7311 85.542 27.9236C85.6654 28.1161 85.7271 28.3579 85.7271 28.6491V30.5849C85.7271 30.7231 85.737 30.8662 85.7567 31.0143C85.7789 31.1623 85.8098 31.2845 85.8493 31.3807V31.4251H85.3792C85.3496 31.3363 85.3261 31.2253 85.3089 31.092C85.2941 30.9563 85.2867 30.828 85.2867 30.7071ZM85.3903 29.0932L85.3977 29.4338H84.5279C84.3008 29.4338 84.0973 29.4547 83.9171 29.4967C83.7395 29.5362 83.5889 29.5954 83.4656 29.6744C83.3422 29.7509 83.2472 29.8434 83.1805 29.952C83.1164 30.0605 83.0843 30.1839 83.0843 30.3221C83.0843 30.4652 83.1201 30.596 83.1917 30.7145C83.2657 30.8329 83.3693 30.9279 83.5026 30.9995C83.6383 31.0686 83.7987 31.1031 83.9838 31.1031C84.2305 31.1031 84.4477 31.0575 84.6352 30.9662C84.8252 30.8749 84.9819 30.7552 85.1053 30.6071C85.2287 30.4591 85.3113 30.2974 85.3533 30.1222L85.5458 30.3776C85.5137 30.501 85.4545 30.6281 85.3681 30.7589C85.2842 30.8872 85.1744 31.0081 85.0387 31.1216C84.9029 31.2327 84.7425 31.324 84.5575 31.3955C84.3749 31.4646 84.1676 31.4992 83.9356 31.4992C83.6741 31.4992 83.4458 31.4498 83.2509 31.3511C83.0584 31.2524 82.9079 31.1179 82.7993 30.9477C82.6932 30.7749 82.6401 30.58 82.6401 30.3628C82.6401 30.1654 82.6821 29.989 82.766 29.8335C82.8499 29.6756 82.9708 29.5423 83.1287 29.4338C83.2891 29.3227 83.4816 29.2388 83.7061 29.1821C83.9332 29.1229 84.1873 29.0932 84.4686 29.0932H85.3903Z" fill="white"/>
<path d="M89.5507 27.4202H89.9615V31.3548C89.9615 31.7027 89.8949 32.0013 89.7617 32.2505C89.6309 32.4998 89.4446 32.691 89.2027 32.8243C88.9634 32.9575 88.6808 33.0241 88.3551 33.0241C88.1898 33.0241 88.0195 32.9982 87.8443 32.9464C87.6716 32.8971 87.5075 32.8206 87.352 32.7169C87.1991 32.6158 87.0683 32.4899 86.9597 32.3394L87.2077 32.0692C87.3705 32.2666 87.5445 32.4109 87.7296 32.5022C87.9147 32.596 88.1145 32.6429 88.3292 32.6429C88.5834 32.6429 88.7981 32.5923 88.9733 32.4911C89.1509 32.39 89.2854 32.2444 89.3767 32.0544C89.4705 31.8644 89.5174 31.6361 89.5174 31.3696V28.3011L89.5507 27.4202ZM86.7376 29.4634V29.3857C86.7376 29.0747 86.7722 28.7947 86.8412 28.5454C86.9128 28.2937 87.0152 28.0791 87.1485 27.9014C87.2817 27.7213 87.4433 27.5843 87.6333 27.4905C87.8258 27.3943 88.043 27.3462 88.2848 27.3462C88.5167 27.3462 88.7228 27.3844 88.9029 27.4609C89.0831 27.5374 89.2385 27.6472 89.3693 27.7903C89.5001 27.9335 89.605 28.1037 89.6839 28.3011C89.7654 28.4985 89.8246 28.7182 89.8616 28.96V29.9483C89.832 30.1753 89.7777 30.3838 89.6987 30.5738C89.6198 30.7613 89.5149 30.9254 89.3841 31.0661C89.2533 31.2043 89.0954 31.3116 88.9103 31.3881C88.7277 31.4621 88.5167 31.4992 88.2774 31.4992C88.038 31.4992 87.8234 31.4498 87.6333 31.3511C87.4433 31.2524 87.2817 31.113 87.1485 30.9328C87.0152 30.7502 86.9128 30.5343 86.8412 30.2851C86.7722 30.0359 86.7376 29.762 86.7376 29.4634ZM87.1818 29.3857V29.4634C87.1818 29.6978 87.2052 29.915 87.2521 30.1148C87.299 30.3147 87.3706 30.4887 87.4668 30.6367C87.563 30.7848 87.6852 30.9008 87.8332 30.9847C87.9813 31.0686 88.1552 31.1105 88.3551 31.1105C88.6093 31.1105 88.8227 31.0624 88.9955 30.9662C89.1682 30.8675 89.3052 30.7379 89.4063 30.5775C89.5075 30.4146 89.5815 30.237 89.6284 30.0445V28.8934C89.6013 28.7626 89.5593 28.6293 89.5026 28.4936C89.4483 28.3579 89.3718 28.2333 89.2731 28.1198C89.1768 28.0038 89.0535 27.9113 88.9029 27.8422C88.7549 27.7706 88.5747 27.7348 88.3625 27.7348C88.1602 27.7348 87.9837 27.7768 87.8332 27.8607C87.6852 27.9446 87.563 28.0618 87.4668 28.2123C87.3706 28.3604 87.299 28.5343 87.2521 28.7342C87.2052 28.9341 87.1818 29.1512 87.1818 29.3857Z" fill="white"/>
<path d="M92.6673 31.4992C92.4057 31.4992 92.1651 31.451 91.9455 31.3548C91.7283 31.2586 91.5383 31.1229 91.3755 30.9477C91.2151 30.7725 91.0905 30.5652 91.0016 30.3258C90.9153 30.084 90.8721 29.82 90.8721 29.5337V29.3745C90.8721 29.0661 90.9177 28.7873 91.009 28.538C91.1003 28.2888 91.2262 28.0754 91.3866 27.8977C91.547 27.72 91.7296 27.5843 91.9344 27.4905C92.1417 27.3943 92.3588 27.3462 92.5858 27.3462C92.84 27.3462 93.0658 27.3918 93.2632 27.4831C93.4606 27.572 93.6259 27.699 93.7592 27.8644C93.8949 28.0272 93.9973 28.2209 94.0664 28.4455C94.1355 28.6676 94.1701 28.9131 94.1701 29.1821V29.4523H91.1386V29.0747H93.7296V29.0229C93.7246 28.7984 93.679 28.5886 93.5926 28.3937C93.5087 28.1963 93.3829 28.0359 93.2151 27.9125C93.0473 27.7891 92.8375 27.7274 92.5858 27.7274C92.3983 27.7274 92.2256 27.7669 92.0676 27.8459C91.9122 27.9248 91.7777 28.0383 91.6642 28.1864C91.5531 28.332 91.4668 28.506 91.4051 28.7083C91.3459 28.9082 91.3163 29.1303 91.3163 29.3745V29.5337C91.3163 29.7558 91.3483 29.9631 91.4125 30.1555C91.4791 30.3456 91.5729 30.5134 91.6938 30.6589C91.8172 30.8045 91.9628 30.918 92.1306 30.9995C92.2984 31.0809 92.4834 31.1216 92.6858 31.1216C92.9227 31.1216 93.1324 31.0784 93.315 30.9921C93.4976 30.9032 93.6617 30.7638 93.8073 30.5738L94.0849 30.7885C93.9985 30.9168 93.89 31.0353 93.7592 31.1438C93.6309 31.2524 93.4766 31.3388 93.2965 31.4029C93.1164 31.4671 92.9066 31.4992 92.6673 31.4992Z" fill="white"/>
<path d="M95.4618 28.2493V31.4251H95.0177V27.4202H95.4433L95.4618 28.2493ZM95.3804 29.1747L95.1657 29.0636C95.1805 28.8267 95.2249 28.6047 95.299 28.3974C95.3755 28.1901 95.4816 28.0075 95.6173 27.8496C95.753 27.6916 95.9159 27.5683 96.1059 27.4794C96.2959 27.3906 96.5118 27.3462 96.7536 27.3462C96.9486 27.3462 97.125 27.3733 97.2829 27.4276C97.4433 27.4794 97.5791 27.5621 97.6901 27.6756C97.8036 27.7866 97.8912 27.9322 97.9529 28.1124C98.0146 28.2925 98.0454 28.5084 98.0454 28.7601V31.4251H97.6049V28.7749C97.6049 28.5084 97.563 28.2999 97.4791 28.1494C97.3977 27.9989 97.2829 27.8915 97.1349 27.8274C96.9893 27.7632 96.8203 27.7311 96.6278 27.7311C96.4008 27.7311 96.2083 27.778 96.0504 27.8718C95.8949 27.9631 95.7678 28.0828 95.6691 28.2308C95.5729 28.3764 95.5013 28.5331 95.4544 28.7009C95.4076 28.8662 95.3829 29.0241 95.3804 29.1747ZM98.0417 28.8267L97.7456 28.8341C97.7579 28.6392 97.8024 28.4529 97.8789 28.2752C97.9578 28.0976 98.0652 27.9396 98.2009 27.8014C98.3366 27.6608 98.4982 27.5498 98.6858 27.4683C98.8758 27.3869 99.0892 27.3462 99.3261 27.3462C99.5334 27.3462 99.7185 27.3746 99.8813 27.4313C100.044 27.4856 100.181 27.5732 100.292 27.6941C100.406 27.8126 100.492 27.9643 100.551 28.1494C100.611 28.3345 100.64 28.5565 100.64 28.8156V31.4251H100.196V28.8119C100.196 28.5282 100.154 28.3085 100.07 28.1531C99.9887 27.9952 99.8752 27.8853 99.7296 27.8237C99.584 27.762 99.4137 27.7311 99.2188 27.7311C99.0263 27.7336 98.8573 27.7694 98.7117 27.8385C98.5661 27.9051 98.4439 27.9939 98.3452 28.105C98.249 28.2135 98.175 28.3308 98.1231 28.4566C98.0738 28.5825 98.0467 28.7058 98.0417 28.8267Z" fill="white"/>
<path d="M103.313 31.4992C103.051 31.4992 102.81 31.451 102.591 31.3548C102.374 31.2586 102.184 31.1229 102.021 30.9477C101.86 30.7725 101.736 30.5652 101.647 30.3258C101.561 30.084 101.517 29.82 101.517 29.5337V29.3745C101.517 29.0661 101.563 28.7873 101.654 28.538C101.746 28.2888 101.871 28.0754 102.032 27.8977C102.192 27.72 102.375 27.5843 102.58 27.4905C102.787 27.3943 103.004 27.3462 103.231 27.3462C103.485 27.3462 103.711 27.3918 103.908 27.4831C104.106 27.572 104.271 27.699 104.404 27.8644C104.54 28.0272 104.643 28.2209 104.712 28.4455C104.781 28.6676 104.815 28.9131 104.815 29.1821V29.4523H101.784V29.0747H104.375V29.0229C104.37 28.7984 104.324 28.5886 104.238 28.3937C104.154 28.1963 104.028 28.0359 103.86 27.9125C103.693 27.7891 103.483 27.7274 103.231 27.7274C103.044 27.7274 102.871 27.7669 102.713 27.8459C102.557 27.9248 102.423 28.0383 102.309 28.1864C102.198 28.332 102.112 28.506 102.05 28.7083C101.991 28.9082 101.962 29.1303 101.962 29.3745V29.5337C101.962 29.7558 101.994 29.9631 102.058 30.1555C102.124 30.3456 102.218 30.5134 102.339 30.6589C102.462 30.8045 102.608 30.918 102.776 30.9995C102.944 31.0809 103.129 31.1216 103.331 31.1216C103.568 31.1216 103.778 31.0784 103.96 30.9921C104.143 30.9032 104.307 30.7638 104.453 30.5738L104.73 30.7885C104.644 30.9168 104.535 31.0353 104.404 31.1438C104.276 31.2524 104.122 31.3388 103.942 31.4029C103.762 31.4671 103.552 31.4992 103.313 31.4992Z" fill="white"/>
<path d="M106.129 28.2752V31.4251H105.689V27.4202H106.111L106.129 28.2752ZM106.029 29.1747L105.833 29.0636C105.848 28.8267 105.896 28.6047 105.978 28.3974C106.059 28.1901 106.169 28.0075 106.307 27.8496C106.448 27.6916 106.612 27.5683 106.799 27.4794C106.989 27.3906 107.199 27.3462 107.429 27.3462C107.628 27.3462 107.807 27.3733 107.965 27.4276C108.123 27.4819 108.258 27.5683 108.369 27.6867C108.48 27.8052 108.564 27.9569 108.62 28.142C108.68 28.3271 108.709 28.5528 108.709 28.8193V31.4251H108.265V28.8156C108.265 28.5393 108.227 28.3233 108.15 28.1679C108.074 28.01 107.965 27.8977 107.825 27.8311C107.684 27.7644 107.517 27.7311 107.325 27.7311C107.113 27.7311 106.926 27.778 106.766 27.8718C106.608 27.9631 106.475 28.0828 106.366 28.2308C106.26 28.3764 106.179 28.5331 106.122 28.7009C106.065 28.8662 106.034 29.0241 106.029 29.1747Z" fill="white"/>
<path d="M111.371 27.4202V27.7829H109.364V27.4202H111.371ZM110.101 26.3912H110.541V30.4517C110.541 30.6367 110.566 30.7762 110.615 30.8699C110.665 30.9637 110.729 31.0266 110.808 31.0587C110.887 31.0908 110.972 31.1068 111.063 31.1068C111.13 31.1068 111.194 31.1031 111.256 31.0957C111.317 31.0858 111.373 31.076 111.422 31.0661L111.441 31.4399C111.387 31.4572 111.316 31.4708 111.23 31.4807C111.143 31.493 111.057 31.4992 110.971 31.4992C110.8 31.4992 110.65 31.4683 110.519 31.4066C110.388 31.3425 110.286 31.2339 110.212 31.0809C110.138 30.9254 110.101 30.7145 110.101 30.448V26.3912Z" fill="white"/>
<path d="M117.304 30.1C117.304 29.952 117.279 29.82 117.23 29.704C117.18 29.588 117.099 29.4844 116.986 29.3931C116.875 29.2993 116.724 29.2129 116.534 29.134C116.346 29.0525 116.112 28.9723 115.831 28.8934C115.562 28.8169 115.319 28.733 115.102 28.6417C114.884 28.5504 114.698 28.4455 114.543 28.3271C114.39 28.2086 114.272 28.0704 114.191 27.9125C114.11 27.7521 114.069 27.5658 114.069 27.3536C114.069 27.1463 114.113 26.9575 114.202 26.7873C114.291 26.617 114.416 26.4702 114.576 26.3468C114.739 26.2234 114.93 26.1284 115.15 26.0618C115.372 25.9952 115.615 25.9618 115.879 25.9618C116.256 25.9618 116.582 26.0334 116.856 26.1765C117.132 26.3197 117.346 26.5134 117.496 26.7577C117.649 26.9995 117.726 27.2709 117.726 27.572H117.271C117.271 27.3375 117.215 27.129 117.104 26.9464C116.995 26.7614 116.838 26.617 116.63 26.5134C116.425 26.4073 116.175 26.3542 115.879 26.3542C115.583 26.3542 115.333 26.3998 115.131 26.4911C114.931 26.58 114.78 26.6997 114.676 26.8502C114.575 26.9982 114.524 27.1636 114.524 27.3462C114.524 27.4745 114.549 27.5929 114.598 27.7015C114.647 27.8076 114.728 27.9076 114.839 28.0013C114.952 28.0926 115.102 28.179 115.287 28.2604C115.472 28.3394 115.7 28.4147 115.971 28.4862C116.258 28.5652 116.512 28.6528 116.734 28.749C116.956 28.8452 117.143 28.9563 117.296 29.0821C117.449 29.2055 117.565 29.3499 117.644 29.5152C117.723 29.6805 117.763 29.873 117.763 30.0926C117.763 30.3122 117.716 30.5097 117.622 30.6849C117.531 30.8576 117.401 31.0044 117.234 31.1253C117.068 31.2462 116.872 31.3388 116.645 31.4029C116.42 31.4671 116.175 31.4992 115.908 31.4992C115.669 31.4992 115.431 31.4683 115.194 31.4066C114.957 31.3449 114.74 31.2499 114.543 31.1216C114.348 30.9908 114.191 30.823 114.073 30.6182C113.957 30.4134 113.899 30.1691 113.899 29.8853H114.35C114.35 30.1124 114.396 30.3036 114.487 30.4591C114.578 30.6145 114.699 30.7404 114.85 30.8366C115.003 30.9328 115.171 31.0032 115.353 31.0476C115.538 31.0895 115.723 31.1105 115.908 31.1105C116.192 31.1105 116.438 31.0686 116.645 30.9847C116.855 30.9008 117.016 30.7836 117.13 30.633C117.246 30.48 117.304 30.3024 117.304 30.1Z" fill="white"/>
<path d="M118.4 29.4856V29.3634C118.4 29.0723 118.441 28.8033 118.525 28.5565C118.609 28.3098 118.729 28.0963 118.884 27.9162C119.042 27.7361 119.231 27.5966 119.451 27.4979C119.67 27.3968 119.915 27.3462 120.184 27.3462C120.455 27.3462 120.701 27.3968 120.92 27.4979C121.14 27.5966 121.329 27.7361 121.486 27.9162C121.644 28.0963 121.765 28.3098 121.849 28.5565C121.933 28.8033 121.975 29.0723 121.975 29.3634V29.4856C121.975 29.7768 121.933 30.0457 121.849 30.2925C121.765 30.5368 121.644 30.749 121.486 30.9291C121.331 31.1093 121.143 31.2499 120.924 31.3511C120.704 31.4498 120.46 31.4992 120.191 31.4992C119.92 31.4992 119.674 31.4498 119.454 31.3511C119.235 31.2499 119.046 31.1093 118.888 30.9291C118.73 30.749 118.609 30.5368 118.525 30.2925C118.441 30.0457 118.4 29.7768 118.4 29.4856ZM118.84 29.3634V29.4856C118.84 29.7052 118.87 29.9137 118.929 30.1111C118.988 30.3061 119.074 30.48 119.188 30.633C119.301 30.7836 119.442 30.902 119.61 30.9884C119.778 31.0747 119.971 31.1179 120.191 31.1179C120.408 31.1179 120.599 31.0747 120.765 30.9884C120.932 30.902 121.073 30.7836 121.187 30.633C121.3 30.48 121.385 30.3061 121.442 30.1111C121.501 29.9137 121.531 29.7052 121.531 29.4856V29.3634C121.531 29.1463 121.501 28.9403 121.442 28.7453C121.385 28.5504 121.299 28.3764 121.183 28.2234C121.069 28.0704 120.929 27.9495 120.761 27.8607C120.593 27.7718 120.401 27.7274 120.184 27.7274C119.966 27.7274 119.774 27.7718 119.606 27.8607C119.441 27.9495 119.3 28.0704 119.184 28.2234C119.071 28.3764 118.984 28.5504 118.925 28.7453C118.868 28.9403 118.84 29.1463 118.84 29.3634Z" fill="white"/>
<path d="M123.385 25.7398V31.4251H122.945V25.7398H123.385Z" fill="white"/>
<path d="M127.161 30.4998V27.4202H127.605V31.4251H127.179L127.161 30.4998ZM127.242 29.7595L127.472 29.7521C127.472 30.0038 127.442 30.2357 127.383 30.448C127.324 30.6602 127.231 30.8452 127.105 31.0032C126.979 31.1611 126.817 31.2832 126.617 31.3696C126.417 31.456 126.176 31.4992 125.895 31.4992C125.7 31.4992 125.521 31.472 125.358 31.4177C125.198 31.361 125.06 31.2721 124.944 31.1512C124.828 31.0303 124.738 30.8736 124.673 30.6812C124.612 30.4887 124.581 30.2555 124.581 29.9816V27.4202H125.021V29.989C125.021 30.2037 125.045 30.3826 125.092 30.5257C125.141 30.6688 125.208 30.7836 125.292 30.8699C125.378 30.9563 125.477 31.018 125.588 31.055C125.699 31.092 125.818 31.1105 125.947 31.1105C126.272 31.1105 126.529 31.0476 126.717 30.9217C126.907 30.7959 127.041 30.6306 127.12 30.4258C127.201 30.2185 127.242 29.9964 127.242 29.7595Z" fill="white"/>
<path d="M130.277 27.4202V27.7829H128.271V27.4202H130.277ZM129.008 26.3912H129.448V30.4517C129.448 30.6367 129.473 30.7762 129.522 30.8699C129.572 30.9637 129.636 31.0266 129.715 31.0587C129.794 31.0908 129.879 31.1068 129.97 31.1068C130.037 31.1068 130.101 31.1031 130.163 31.0957C130.224 31.0858 130.28 31.076 130.329 31.0661L130.348 31.4399C130.293 31.4572 130.223 31.4708 130.137 31.4807C130.05 31.493 129.964 31.4992 129.878 31.4992C129.707 31.4992 129.557 31.4683 129.426 31.4066C129.295 31.3425 129.193 31.2339 129.119 31.0809C129.045 30.9254 129.008 30.7145 129.008 30.448V26.3912Z" fill="white"/>
<path d="M131.699 27.4202V31.4251H131.258V27.4202H131.699ZM131.18 26.2617C131.18 26.1778 131.206 26.1074 131.258 26.0507C131.312 25.9915 131.387 25.9618 131.48 25.9618C131.574 25.9618 131.648 25.9915 131.702 26.0507C131.759 26.1074 131.788 26.1778 131.788 26.2617C131.788 26.3431 131.759 26.4134 131.702 26.4726C131.648 26.5294 131.574 26.5578 131.48 26.5578C131.387 26.5578 131.312 26.5294 131.258 26.4726C131.206 26.4134 131.18 26.3431 131.18 26.2617Z" fill="white"/>
<path d="M132.665 29.4856V29.3634C132.665 29.0723 132.707 28.8033 132.791 28.5565C132.874 28.3098 132.994 28.0963 133.15 27.9162C133.308 27.7361 133.496 27.5966 133.716 27.4979C133.936 27.3968 134.18 27.3462 134.449 27.3462C134.72 27.3462 134.966 27.3968 135.185 27.4979C135.405 27.5966 135.594 27.7361 135.752 27.9162C135.91 28.0963 136.031 28.3098 136.114 28.5565C136.198 28.8033 136.24 29.0723 136.24 29.3634V29.4856C136.24 29.7768 136.198 30.0457 136.114 30.2925C136.031 30.5368 135.91 30.749 135.752 30.9291C135.596 31.1093 135.409 31.2499 135.189 31.3511C134.97 31.4498 134.725 31.4992 134.456 31.4992C134.185 31.4992 133.939 31.4498 133.72 31.3511C133.5 31.2499 133.311 31.1093 133.153 30.9291C132.995 30.749 132.874 30.5368 132.791 30.2925C132.707 30.0457 132.665 29.7768 132.665 29.4856ZM133.105 29.3634V29.4856C133.105 29.7052 133.135 29.9137 133.194 30.1111C133.253 30.3061 133.34 30.48 133.453 30.633C133.567 30.7836 133.707 30.902 133.875 30.9884C134.043 31.0747 134.237 31.1179 134.456 31.1179C134.673 31.1179 134.865 31.0747 135.03 30.9884C135.198 30.902 135.338 30.7836 135.452 30.633C135.565 30.48 135.651 30.3061 135.707 30.1111C135.767 29.9137 135.796 29.7052 135.796 29.4856V29.3634C135.796 29.1463 135.767 28.9403 135.707 28.7453C135.651 28.5504 135.564 28.3764 135.448 28.2234C135.335 28.0704 135.194 27.9495 135.026 27.8607C134.858 27.7718 134.666 27.7274 134.449 27.7274C134.232 27.7274 134.039 27.7718 133.871 27.8607C133.706 27.9495 133.565 28.0704 133.449 28.2234C133.336 28.3764 133.25 28.5504 133.19 28.7453C133.134 28.9403 133.105 29.1463 133.105 29.3634Z" fill="white"/>
<path d="M137.599 28.2752V31.4251H137.158V27.4202H137.58L137.599 28.2752ZM137.499 29.1747L137.303 29.0636C137.317 28.8267 137.366 28.6047 137.447 28.3974C137.528 28.1901 137.638 28.0075 137.776 27.8496C137.917 27.6916 138.081 27.5683 138.269 27.4794C138.459 27.3906 138.668 27.3462 138.898 27.3462C139.098 27.3462 139.277 27.3733 139.435 27.4276C139.593 27.4819 139.727 27.5683 139.838 27.6867C139.949 27.8052 140.033 27.9569 140.09 28.142C140.149 28.3271 140.179 28.5528 140.179 28.8193V31.4251H139.734V28.8156C139.734 28.5393 139.696 28.3233 139.62 28.1679C139.543 28.01 139.435 27.8977 139.294 27.8311C139.153 27.7644 138.987 27.7311 138.794 27.7311C138.582 27.7311 138.396 27.778 138.235 27.8718C138.077 27.9631 137.944 28.0828 137.836 28.2308C137.73 28.3764 137.648 28.5331 137.591 28.7009C137.535 28.8662 137.504 29.0241 137.499 29.1747Z" fill="white"/>
<path d="M0 23.1304V2.65357H13.0094V5.45496H2.95541V11.1998H11.3125V14.0011H2.95541V20.3291H13.0094V23.1304H0ZM20.5345 23.1304L14.9914 7.77277H17.975L22.0334 19.4048L26.0918 7.77277H29.0755L23.5323 23.1304H20.5345ZM37.8442 23.557C36.3265 23.557 34.9926 23.2252 33.8425 22.5616C32.7018 21.8885 31.8109 20.9547 31.1699 19.7602C30.5383 18.5563 30.2225 17.1627 30.2225 15.5796C30.2225 13.9016 30.5335 12.4465 31.1557 11.214C31.7874 9.98158 32.6641 9.02884 33.7859 8.35581C34.9077 7.68269 36.2134 7.34616 37.7029 7.34616C39.2584 7.34616 40.5828 7.71113 41.6764 8.44116C42.7699 9.16156 43.5854 10.1902 44.1228 11.5269C44.6695 12.8635 44.8863 14.4515 44.7733 16.2906H41.8178V15.2099C41.799 13.4276 41.4596 12.1099 40.7997 11.2567C40.1492 10.4035 39.1547 9.97685 37.816 9.97685C36.3359 9.97685 35.2235 10.4462 34.4788 11.3846C33.734 12.3232 33.3617 13.6788 33.3617 15.4516C33.3617 17.139 33.734 18.4472 34.4788 19.3763C35.2235 20.2959 36.2982 20.7557 37.7029 20.7557C38.6267 20.7557 39.4233 20.547 40.0926 20.13C40.7714 19.7034 41.2993 19.0966 41.6764 18.3098L44.5753 19.2341C43.9813 20.6087 43.0811 21.6752 41.8744 22.4336C40.6677 23.1825 39.3244 23.557 37.8442 23.557ZM32.4001 16.2906V13.9727H43.3026V16.2906H32.4001ZM58.2502 23.1304V15.5796C58.2502 14.9823 58.1984 14.3708 58.0946 13.7452C58.0004 13.11 57.8118 12.5223 57.529 11.9819C57.2557 11.4415 56.8644 11.0055 56.3553 10.6737C55.8557 10.3418 55.2005 10.1759 54.3898 10.1759C53.8619 10.1759 53.3622 10.266 52.8909 10.4462C52.4195 10.6168 52.0047 10.8964 51.6465 11.2851C51.2977 11.6738 51.0196 12.1857 50.8122 12.8209C50.6142 13.456 50.5152 14.2287 50.5152 15.1388L48.6769 14.4419C48.6769 13.0484 48.9362 11.8207 49.4547 10.759C49.9732 9.6877 50.7179 8.85349 51.6889 8.25627C52.6599 7.65904 53.8336 7.36043 55.2099 7.36043C56.2657 7.36043 57.152 7.53106 57.8684 7.8723C58.5848 8.21363 59.1646 8.66387 59.6077 9.22319C60.0602 9.77305 60.4043 10.375 60.6399 11.0291C60.8757 11.6832 61.036 12.3232 61.1207 12.9489C61.2056 13.5745 61.248 14.1244 61.248 14.5984V23.1304H58.2502ZM47.5174 23.1304V7.77277H50.1617V12.2094H50.5152V23.1304H47.5174ZM73.6702 23.1304C72.7086 23.32 71.7659 23.4005 70.842 23.3721C69.9182 23.3436 69.0934 23.1635 68.3674 22.8317C67.6415 22.5 67.0947 21.9785 66.7271 21.2675C66.3972 20.6324 66.218 19.9877 66.1898 19.3336C66.1709 18.67 66.1615 17.9211 66.1615 17.0869V3.50677H69.1311V16.9447C69.1311 17.5608 69.1357 18.0965 69.1451 18.5516C69.164 19.0065 69.263 19.3905 69.4421 19.7034C69.7815 20.2911 70.3188 20.6277 71.0542 20.7129C71.7989 20.7888 72.6709 20.7557 73.6702 20.6134V23.1304ZM63.2343 10.1617V7.77277H73.6702V10.1617H63.2343Z" fill="white"/>
<path d="M102.247 23.1304V2.65357H109.741C109.939 2.65357 110.142 2.66302 110.349 2.68202C110.557 2.69147 110.788 2.71993 111.042 2.76729C112.023 2.919 112.872 3.27924 113.588 3.84801C114.314 4.40733 114.87 5.11836 115.256 5.98101C115.652 6.83421 115.85 7.77276 115.85 8.79659C115.85 9.82041 115.652 10.7637 115.256 11.6263C114.87 12.4795 114.314 13.1906 113.588 13.7593C112.872 14.3187 112.023 14.6742 111.042 14.8259C110.788 14.8638 110.557 14.8922 110.349 14.9112C110.142 14.9302 109.939 14.9396 109.741 14.9396H103.435V23.1304H102.247ZM103.435 13.7452H109.741C109.902 13.7452 110.09 13.7356 110.307 13.7167C110.533 13.6977 110.76 13.6693 110.986 13.6314C111.768 13.4797 112.424 13.1669 112.952 12.6929C113.489 12.2188 113.895 11.6453 114.168 10.9722C114.441 10.2897 114.578 9.56443 114.578 8.79659C114.578 8.02874 114.441 7.30826 114.168 6.63514C113.895 5.95256 113.489 5.37433 112.952 4.90029C112.424 4.42632 111.768 4.11345 110.986 3.96182C110.76 3.91437 110.533 3.88592 110.307 3.87646C110.09 3.85755 109.902 3.84801 109.741 3.84801H103.435V13.7452ZM118.68 23.1304V7.77277H119.783V11.4415L119.415 10.958C119.575 10.5409 119.778 10.1522 120.023 9.79196C120.268 9.43172 120.509 9.13784 120.745 8.91039C121.16 8.50271 121.65 8.19464 122.216 7.98602C122.791 7.76804 123.365 7.64478 123.94 7.61633C124.515 7.57842 125.024 7.63059 125.468 7.77277V8.91039C124.836 8.76814 124.166 8.74441 123.46 8.83922C122.753 8.92458 122.093 9.25164 121.48 9.82041C120.943 10.3229 120.561 10.9011 120.334 11.5553C120.118 12.2094 119.986 12.8872 119.938 13.5887C119.891 14.2808 119.868 14.9396 119.868 15.5653V23.1304H118.68ZM134.014 23.557C132.506 23.557 131.233 23.2109 130.196 22.5189C129.159 21.8268 128.372 20.8694 127.835 19.6465C127.298 18.4235 127.029 17.0157 127.029 15.4231C127.029 13.8115 127.302 12.399 127.849 11.1856C128.395 9.97212 129.187 9.02884 130.224 8.35581C131.271 7.68269 132.534 7.34616 134.014 7.34616C135.532 7.34616 136.809 7.69214 137.847 8.38417C138.883 9.06675 139.665 10.0148 140.193 11.2282C140.731 12.4416 141 13.84 141 15.4231C141 17.0442 140.731 18.4662 140.193 19.6891C139.656 20.9026 138.864 21.8506 137.818 22.5331C136.781 23.2156 135.513 23.557 134.014 23.557ZM134.014 22.3624C135.937 22.3624 137.37 21.7226 138.313 20.4428C139.255 19.1535 139.727 17.4803 139.727 15.4231C139.727 13.328 139.251 11.6595 138.299 10.4176C137.356 9.16629 135.928 8.54061 134.014 8.54061C132.723 8.54061 131.653 8.8345 130.804 9.42226C129.965 10.01 129.338 10.8206 128.923 11.8539C128.508 12.8872 128.301 14.077 128.301 15.4231C128.301 17.5087 128.782 19.1867 129.744 20.457C130.715 21.7273 132.138 22.3624 134.014 22.3624Z" fill="white"/>
<path fill-rule="evenodd" clip-rule="evenodd" d="M94.5773 15.3829L91.4445 12.241C91.3951 13.1292 91.0362 14.0169 90.3533 14.696L88.5873 16.4719L96.1355 24.0629C96.1355 19.5553 96.4101 17.2512 94.6021 15.408L94.5773 15.3829Z" fill="url(#paint0_linear_474_2661)"/>
<path fill-rule="evenodd" clip-rule="evenodd" d="M91.4445 11.8218L94.5773 8.67173C96.4184 6.82009 96.1355 4.5246 96.1355 0.000148718L88.5873 7.58271L90.3533 9.36725C91.0362 10.046 91.3951 10.9253 91.4445 11.8218Z" fill="url(#paint1_linear_474_2661)"/>
<path fill-rule="evenodd" clip-rule="evenodd" d="M84.1711 12.0315C86.5458 13.4896 87.6701 15.1314 86.9451 16.3466L79.2719 24.063C79.2719 21.3486 78.7636 17.4607 80.8296 15.3828L84.1711 12.0315Z" fill="url(#paint2_linear_474_2661)"/>
<path fill-rule="evenodd" clip-rule="evenodd" d="M86.9451 16.3466C87.3781 15.2571 86.2621 14.1346 84.1711 12.0315L80.8304 8.67157C78.9889 6.81993 79.2722 4.52444 79.2722 0L89.4699 10.2552C90.4449 11.2272 90.4449 12.8277 89.4699 13.8078L86.9451 16.3466Z" fill="url(#paint3_linear_474_2661)"/>
<path fill-rule="evenodd" clip-rule="evenodd" d="M91.4445 11.8218L92.5276 10.733C92.3115 9.90335 91.8776 9.12422 91.2367 8.47068L89.4698 6.69435L88.5873 7.58271L90.3533 9.36725C91.0362 10.046 91.3951 10.9253 91.4445 11.8218Z" fill="url(#paint4_linear_474_2661)"/>
<path fill-rule="evenodd" clip-rule="evenodd" d="M90.3533 14.696L88.5873 16.4719L89.4698 17.3603L91.2367 15.5842C91.8784 14.9391 92.3115 14.1599 92.5284 13.3303L91.4445 12.241C91.3951 13.1292 91.0362 14.0169 90.3533 14.696Z" fill="url(#paint5_linear_474_2661)"/>
<path fill-rule="evenodd" clip-rule="evenodd" d="M84.1711 12.0315C86.2621 14.1346 87.3781 15.2571 86.9451 16.3466C86.8205 14.7797 85.3375 13.8999 82.4967 13.7069L84.1711 12.0315Z" fill="url(#paint6_linear_474_2661)"/>
<path fill-rule="evenodd" clip-rule="evenodd" d="M82.4967 13.7069C85.3375 13.8999 86.8205 14.7797 86.9451 16.3466C85.4867 17.1674 83.8708 17.6282 82.2302 17.7037C82.4966 16.3968 82.5883 15.0563 82.4967 13.7069Z" fill="url(#paint7_linear_474_2661)"/>
<path fill-rule="evenodd" clip-rule="evenodd" d="M82.4967 13.7069C82.5883 15.0563 82.4966 16.3968 82.2302 17.7037C81.3641 17.7455 80.4881 17.6786 79.63 17.5112C79.8717 16.6985 80.2466 15.9692 80.8296 15.3828L82.4967 13.7069Z" fill="url(#paint8_linear_474_2661)"/>
<path fill-rule="evenodd" clip-rule="evenodd" d="M82.2302 17.7037C83.8708 17.6282 85.4867 17.1674 86.9451 16.3466L79.2719 24.063C80.7545 22.1949 81.7559 20.0082 82.2302 17.7037Z" fill="url(#paint9_linear_474_2661)"/>
<path fill-rule="evenodd" clip-rule="evenodd" d="M86.9451 16.3466C88.203 14.4783 88.0115 11.8217 86.3618 8.37818C88.0701 9.21595 89.4525 10.2133 90.0117 11.0763C90.3862 11.9812 90.2032 13.0702 89.4699 13.8078L86.9451 16.3466Z" fill="url(#paint10_linear_474_2661)"/>
<path fill-rule="evenodd" clip-rule="evenodd" d="M90.0117 11.0763C89.4541 10.2133 88.0701 9.2162 86.3618 8.37818C85.9287 7.48168 85.4033 6.53509 84.7789 5.52976L89.4699 10.2552C89.7116 10.4899 89.8954 10.7747 90.0117 11.0763Z" fill="url(#paint11_linear_474_2661)"/>
<path fill-rule="evenodd" clip-rule="evenodd" d="M86.3618 8.37818C88.0115 11.8217 88.203 14.4783 86.9451 16.3466C87.3781 15.2571 86.2621 14.1346 84.1711 12.0315L80.8304 8.67157C80.2059 8.04308 79.8216 7.36465 79.5967 6.56039C81.7461 6.59415 84.2955 7.37302 86.3618 8.37818Z" fill="url(#paint12_linear_474_2661)"/>
<defs>
<linearGradient id="paint0_linear_474_2661" x1="217.426" y1="16.5122" x2="-0.599736" y2="16.5122" gradientUnits="userSpaceOnUse">
<stop stop-color="#D58BDB"/>
<stop offset="0.3" stop-color="#C66ACB"/>
<stop offset="0.66" stop-color="#9D4AC5"/>
<stop offset="1" stop-color="#6416C2"/>
</linearGradient>
<linearGradient id="paint1_linear_474_2661" x1="217.405" y1="16.5116" x2="-0.599679" y2="16.5116" gradientUnits="userSpaceOnUse">
<stop stop-color="#D58BDB"/>
<stop offset="0.3" stop-color="#C66ACB"/>
<stop offset="0.66" stop-color="#9D4AC5"/>
<stop offset="1" stop-color="#6416C2"/>
</linearGradient>
<linearGradient id="paint2_linear_474_2661" x1="217.134" y1="16.5128" x2="-6.65777" y2="16.5128" gradientUnits="userSpaceOnUse">
<stop stop-color="#662D80"/>
<stop offset="0.49" stop-color="#C10067"/>
<stop offset="1" stop-color="#FF644B"/>
</linearGradient>
<linearGradient id="paint3_linear_474_2661" x1="70.498" y1="33.4039" x2="70.498" y2="0.262422" gradientUnits="userSpaceOnUse">
<stop stop-color="#C41F1B"/>
<stop offset="0.33" stop-color="#D36D1D"/>
<stop offset="0.66" stop-color="#DBA21D"/>
<stop offset="1" stop-color="#E2DD86"/>
</linearGradient>
<linearGradient id="paint4_linear_474_2661" x1="589.532" y1="16.5113" x2="-3.09922" y2="16.5113" gradientUnits="userSpaceOnUse">
<stop stop-color="#D58BDB"/>
<stop offset="0.3" stop-color="#C66ACB"/>
<stop offset="0.66" stop-color="#9D4AC5"/>
<stop offset="1" stop-color="#6416C2"/>
</linearGradient>
<linearGradient id="paint5_linear_474_2661" x1="589.408" y1="16.5113" x2="-3.09857" y2="16.5113" gradientUnits="userSpaceOnUse">
<stop stop-color="#D58BDB"/>
<stop offset="0.3" stop-color="#C66ACB"/>
<stop offset="0.66" stop-color="#9D4AC5"/>
<stop offset="1" stop-color="#6416C2"/>
</linearGradient>
<linearGradient id="paint6_linear_474_2661" x1="179.152" y1="16.5121" x2="-282.365" y2="16.5121" gradientUnits="userSpaceOnUse">
<stop stop-color="#662D80"/>
<stop offset="0.49" stop-color="#C10067"/>
<stop offset="1" stop-color="#FF644B"/>
</linearGradient>
<linearGradient id="paint7_linear_474_2661" x1="275.785" y1="16.5124" x2="-216.134" y2="16.5124" gradientUnits="userSpaceOnUse">
<stop stop-color="#662D80"/>
<stop offset="0.49" stop-color="#C10067"/>
<stop offset="1" stop-color="#FF644B"/>
</linearGradient>
<linearGradient id="paint8_linear_474_2661" x1="574.826" y1="16.5131" x2="-70.0532" y2="16.5131" gradientUnits="userSpaceOnUse">
<stop stop-color="#662D80"/>
<stop offset="0.49" stop-color="#C10067"/>
<stop offset="1" stop-color="#FF644B"/>
</linearGradient>
<linearGradient id="paint9_linear_474_2661" x1="223.85" y1="16.5123" x2="-38.0102" y2="16.5123" gradientUnits="userSpaceOnUse">
<stop stop-color="#662D80"/>
<stop offset="0.49" stop-color="#C10067"/>
<stop offset="1" stop-color="#FF644B"/>
</linearGradient>
<linearGradient id="paint10_linear_474_2661" x1="70.4997" y1="33.8031" x2="70.4997" y2="-69.8584" gradientUnits="userSpaceOnUse">
<stop stop-color="#C41F1B"/>
<stop offset="0.33" stop-color="#D36D1D"/>
<stop offset="0.66" stop-color="#DBA21D"/>
<stop offset="1" stop-color="#E2DD86"/>
</linearGradient>
<linearGradient id="paint11_linear_474_2661" x1="70.5111" y1="65.5213" x2="70.5111" y2="-63.2712" gradientUnits="userSpaceOnUse">
<stop stop-color="#C41F1B"/>
<stop offset="0.33" stop-color="#D36D1D"/>
<stop offset="0.66" stop-color="#DBA21D"/>
<stop offset="1" stop-color="#E2DD86"/>
</linearGradient>
<linearGradient id="paint12_linear_474_2661" x1="83.6795" y1="16.5344" x2="83.6795" y2="-2.19369" gradientUnits="userSpaceOnUse">
<stop stop-color="#C41F1B"/>
<stop offset="0.33" stop-color="#D36D1D"/>
<stop offset="0.66" stop-color="#DBA21D"/>
<stop offset="1" stop-color="#E2DD86"/>
</linearGradient>
</defs>
</svg>
